<svg width="1068" height="127" viewBox="0 0 1068 127" fill="none" xmlns="http://www.w3.org/2000/svg">
<path fill-rule="evenodd" clip-rule="evenodd" d="M0 63.7748C41.8041 44.5218 116.221 16.823 160 24C185.43 28.1688 205.82 39.4631 226.386 50.855C255.153 66.7897 284.266 82.9156 328 80C388.02 75.9986 357.42 55.3463 330.245 37.0058C323.463 32.4282 316.894 27.9947 312 24C307.346 20.2007 312.373 23.0592 323.224 29.23C354.537 47.0371 434.353 92.4265 470 85C489.747 80.886 504.247 67.8867 518.096 55.4712C537.911 37.7077 556.393 21.1393 587 33.5C610.786 43.1058 620.762 51.5608 629.945 59.3435C640.839 68.5753 650.615 76.8612 681 85C737 100 819 80 841 50C851.799 35.2746 889.602 28.037 930.058 20.2917C951.317 16.2215 973.31 12.011 992.5 6.49998C1008.69 1.85111 1015.02 0.00022292 1015.15 0.370645C1015.82 2.23124 860.052 60.1355 1011 101C1034.35 107.321 1053.1 108.492 1068 105.656V127H0V63.7748Z" fill="#1F2023"/>
</svg>
